<svg width="24" height="24" fill="none" xmlns="http://www.w3.org/2000/svg"><path opacity=".1" fill-rule="evenodd" clip-rule="evenodd" d="M0 12C0 5.373 5.373 0 12 0s12 5.373 12 12-5.373 12-12 12S0 18.627 0 12z" fill="#fff"/><path fill-rule="evenodd" clip-rule="evenodd" d="M18.4 11.991a6.406 6.406 0 01-.504 2.488 6.436 6.436 0 01-2.318 2.811c-.342.23-.707.429-1.087.59a6.43 6.43 0 01-4.983 0 6.465 6.465 0 01-1.087-.59 6.445 6.445 0 01-2.318-2.811 6.368 6.368 0 01-.373-3.775 6.354 6.354 0 01.963-2.287 6.452 6.452 0 011.728-1.725 6.337 6.337 0 012.29-.962 6.45 6.45 0 013.78.372 6.418 6.418 0 012.815 2.315 6.33 6.33 0 011.094 3.574zM9.668 7.055a5.466 5.466 0 00-3.017 3.81c.144.002 2.422.03 5.046-.665a32.866 32.866 0 00-2.03-3.145zm2.482 3.985c-2.814.841-5.515.78-5.611.777-.002.059-.005.115-.005.174 0 1.402.53 2.68 1.4 3.647-.001-.003 1.494-2.652 4.444-3.605.071-.024.144-.045.216-.066-.138-.31-.287-.62-.444-.927zm3.46-3.145A5.444 5.444 0 0012 6.534c-.444 0-.875.054-1.288.153.082.11 1.108 1.47 2.043 3.183 2.062-.772 2.84-1.955 2.854-1.975zm-2.644 4.977l-.036.012c-3.225 1.122-4.278 3.385-4.29 3.41a5.46 5.46 0 005.494.722 22.701 22.701 0 00-1.168-4.144zm2.088 3.645a5.459 5.459 0 002.342-3.66 7.94 7.94 0 00-3.406-.238 23.593 23.593 0 011.064 3.898zm-1.878-5.833a17.17 17.17 0 01.481 1.074c1.878-.236 3.727.16 3.806.177a5.425 5.425 0 00-1.242-3.41c-.01.014-.887 1.279-3.045 2.159z" fill="#fff"/></svg>