<svg width="48" height="48" fill="none" xmlns="http://www.w3.org/2000/svg"><g clip-path="url(#clip0_27_303)"><rect width="48" height="48" rx="8" fill="#2C2C2C"/><g filter="url(#filter0_f_27_303)"><circle cx="24" cy="24" r="20" fill="url(#paint0_radial_27_303)" fill-opacity=".5"/></g><path d="M33.92 14.62a1 1 0 00-.54-.54A1.001 1.001 0 0033 14h-6a1 1 0 000 2h3.59L16 30.59V27a1 1 0 00-2 0v6c.002.13.029.26.08.38a1 1 0 00.54.54c.12.051.25.078.38.08h6a1 1 0 000-2h-3.59L32 17.41V21a1 1 0 002 0v-6a1.001 1.001 0 00-.08-.38z" fill="#29B550"/></g><defs><radialGradient id="paint0_radial_27_303" cx="0" cy="0" r="1" gradientUnits="userSpaceOnUse" gradientTransform="matrix(0 20 -20 0 24 24)"><stop stop-color="#98EAAF" stop-opacity=".5"/><stop offset="1" stop-color="#318749" stop-opacity=".5"/></radialGradient><clipPath id="clip0_27_303"><rect width="48" height="48" rx="24" fill="#fff"/></clipPath><filter id="filter0_f_27_303" x="-6" y="-6" width="60" height="60" filterUnits="userSpaceOnUse" color-interpolation-filters="sRGB"><feFlood flood-opacity="0" result="BackgroundImageFix"/><feBlend in="SourceGraphic" in2="BackgroundImageFix" result="shape"/><feGaussianBlur stdDeviation="5" result="effect1_foregroundBlur_27_303"/></filter></defs></svg>