<svg width="474" height="476" fill="none" xmlns="http://www.w3.org/2000/svg"><path d="M237 0l14.161 148.211 59.076-136.563L278.098 157l98.207-111.546-75.293 128.264 127.725-75.61-111.078 98.621L462.4 164.454l-135.989 59.325L474 238l-147.589 14.221L462.4 311.546l-144.741-32.275 111.078 98.622-127.725-75.611 75.293 128.264L278.098 319l32.139 145.351-59.076-136.562L237 476l-14.161-148.211-59.076 136.562L195.902 319 97.695 430.546l75.293-128.264-127.725 75.611 111.078-98.622L11.6 311.546l135.989-59.325L0 238l147.589-14.221-135.99-59.325 144.742 32.275L45.263 98.107l127.725 75.611L97.695 45.454 195.902 157 163.763 11.649l59.076 136.562L237 0z" fill="#231E29"/></svg>